# xmcd CD database file
#
# Track frame offsets:
#	150
#	10283
#	20295
#	30240
#	39810
#	49154
#	59923
#	71914
#	84352
#	95425
#	108410
#	119639
#	130220
#	140258
#	151945
#	161163
#	171742
#	181749
#	192891
#	203141
#	213183
#	223785
#	233802
#	244314
#	255501
#	267636
#	281439
#	293062
#	304019
#	314468
#
# Disc length: 4326 seconds
#
# Revision: 3
# Processed by: cddbd v1.5.2PL0 Copyright (c) Steve Scherf et al.
# Submitted via: jetAudio 7
#
DISCID=b910e41e
DTITLE=Jerry Reed - Here I Am
DYEAR=1999
DGENRE=Rock and Roll
TTITLE0=Oh! Lonely Heart
TTITLE1=In My Own Backyard
TTITLE2=I've Had Enough
TTITLE3=Teardrop Street
TTITLE4=Heart Appeal
TTITLE5=Bessie Baby
TTITLE6=Too Busy Cryin' The Blues
TTITLE7=I'm Stuck
TTITLE8=Mister Whiz
TTITLE9=Rockin' In Bagdad
TTITLE10=When I Found You
TTITLE11=Honey Chile
TTITLE12=It's High Time
TTITLE13=You Make It, They Take It
TTITLE14=Your Money Makes You Purty
TTITLE15=Too Young To Be Blue
TTITLE16=You're Braggin', Boy
TTITLE17=Just A Romeo
TTITLE18=If The Good Lord's Willing And The Creeks Don't Rise
TTITLE19=Here I Am
TTITLE20=I'm Tired Of Playing Cupid
TTITLE21=I'm A Lover, Not A Fighter
TTITLE22=How Can I Go On This Way
TTITLE23=Everywhere
TTITLE24=Forever
TTITLE25=This Great Big Empty Room
TTITLE26=I Can't Find The Words
TTITLE27=How Can I Go On This Way
TTITLE28=Ba-Bee
TTITLE29=So In Love
EXTD=
EXTT0=
EXTT1=
EXTT2=
EXTT3=
EXTT4=
EXTT5=
EXTT6=
EXTT7=
EXTT8=
EXTT9=
EXTT10=
EXTT11=
EXTT12=
EXTT13=
EXTT14=
EXTT15=
EXTT16=
EXTT17=
EXTT18=
EXTT19=
EXTT20=
EXTT21=
EXTT22=
EXTT23=
EXTT24=
EXTT25=
EXTT26=
EXTT27=
EXTT28=
EXTT29=
PLAYORDER=
